<svg xmlns="http://www.w3.org/2000/svg" width="300" height="300" viewBox="0 0 500 500"><rect width="500" height="500" rx="250" fill="#481d24"/><path fill="#255f85" d="M440.7 280.2c0 6.7-.4 13.1-1.2 19.2-1.1 7.9-2.9 15.2-5.3 21.9a86.3 86.3 0 0 1-20.7 32.6C393 374.3 362 385.2 325 390.6c-23 3.3-48.3 4.5-74.9 4.5a529 529 0 0 1-75-4.6c-68-9.8-115.7-38.4-115.7-110.3 0-96.3 85.4-174.3 190.7-174.3 95.7 0 175 64.4 188.6 148.3a161 161 0 0 1 2.1 26z"/><path fill="#437da3" d="M156 387.1c-57.8-12.3-96.7-42-96.7-107 0-9.4.8-18.6 2.4-27.6 19.1 3.4 39.3 17 53.6 38.1a105 105 0 0 1 5 8.2 73.6 73.6 0 0 0 21 23.8c4.9 3.6 9.5 8.3 13.3 14 12.3 18.2 12.6 40 1.3 50.5z"/><path fill="#255f85" d="M104.3 167.8a176.9 176.9 0 0 0-21.6 28.8 67.7 67.7 0 0 1-24.4-12.8 38.1 38.1 0 0 1-14.1-29.4c-.4-7 .7-13.8 1.8-19.5 2.6-13.3 52.2 27.8 58.3 32.9zm291.5 0a176.9 176.9 0 0 1 21.6 28.8 67.7 67.7 0 0 0 24.4-12.8 38.1 38.1 0 0 0 14.1-29.4c.3-7-.7-13.8-1.9-19.5-2.6-13.3-52.2 27.8-58.2 32.9z"/><path fill="#fec3aa" d="M91.3 183.6c-3.1 4.2-6 8.5-8.6 13a67.7 67.7 0 0 1-24.4-12.8 38.1 38.1 0 0 1-14.1-29.4c6.6.3 22 2 30.3 11 5.4 5.7 11.8 12.7 16.8 18.2zm317.5 0c3 4.2 6 8.5 8.6 13a67.7 67.7 0 0 0 24.4-12.8 38.1 38.1 0 0 0 14.1-29.4c-6.7.3-22 2-30.3 11-5.5 5.7-11.8 12.7-16.8 18.2z"/><path fill="#937155" d="M114 61.8s6.7-1 9.5 6.8 1 20.3 8.3 24.1c7.4 3.8 17.2 1.2 16.8-9.8-.4-11 3.2-19.3 10.7-15 7.6 4.5 10.6 13.6 9.4 30.2s-1 36.3-5.2 41.7c-4.2 5.3-20.1 5.3-25.5-2.2-5.4-7.6-8-11-16.3-16a61.2 61.2 0 0 1-24.1-29.3c-3.4-11.5-1.3-32.7 16.5-30.5zm271.8 0s-6.6-1-9.4 6.8-1 20.3-8.3 24.1c-7.4 3.8-17.2 1.2-16.8-9.8.4-11-3.2-19.3-10.8-15-7.5 4.5-10.5 13.6-9.3 30.2s1 36.3 5.2 41.7c4.2 5.3 20 5.3 25.5-2.2 5.4-7.6 8-11 16.3-16 8.4-5 20.7-17.7 24.1-29.3 3.4-11.5 1.2-32.7-16.5-30.5z"/><path fill="#ffc857" d="M309.5 114.6c-18.7-5.6-38.7-8.6-59.4-8.6-10.6 0-21 .8-31.1 2.3-8.1-10.8-13-23.6-14-37 0-.4-.1-.8-.1-1.2-.6-11.3 5.6-23.1 5.6-23.1s1.8 10.8 8.9 24.3c7 13.2 19.6 18.4 20 18.6-.1-.2-3.4-4.4-1.2-21.4 2.6-19.5 18.6-28.4 18.6-28.4s-4 11.7-2 25c2.5 16.2 15.9 27.3 15.9 27.3s.3-8.3 5.2-21.5 15.7-20.7 15.7-20.7-2.4 9.8-2.4 27.9c-.2 15 15.3 31.5 20.3 36.5z"/><ellipse cx="250" cy="299.3" fill="#074167" rx="39.7" ry="27.6"/><path fill="#002349" d="M229.1 315.4c-1.2 1.4-3.3 1.6-5.4.9a8.2 8.2 0 0 1-4.7-4.3c-1-2-.9-4 .3-5.3 1.4-1.5 3.7-1.8 5.9-.8a8.3 8.3 0 0 1 4.1 3.7c1.1 2 1.1 4.3-.2 5.8zM281 312a8.5 8.5 0 0 1-4.7 4.3c-2 .7-4.1.4-5.4-1-1.2-1.4-1.2-3.6-.2-5.6a8.5 8.5 0 0 1 4.2-3.8c2.2-1 4.5-.7 5.8.8 1.2 1.3 1.3 3.4.4 5.4z"/><path fill="#15212a" d="M281 312a26.6 26.6 0 0 0-6.1-6.1c-.8.3-1.6.8-2.3 1.4-.8.7-1.4 1.5-1.9 2.4a3 3 0 0 0 1 1.5 19 19 0 0 1 4.6 5c1.3 2.2 2 4.5 2 7 0 10.2-12.7 18.6-28.3 18.6s-28.3-8.4-28.3-18.7c0-2.4.7-4.7 2-6.8a19 19 0 0 1 4.5-5.1c.6-.4 1-1 1-1.6a8.3 8.3 0 0 0-4-3.7c-.3 0-.6.2-.9.4-2 1.7-3.9 3.6-5.3 5.7a19.5 19.5 0 0 0-3.6 11.1c0 13.8 15.5 25 34.6 25s34.6-11.2 34.6-25c0-4-1.3-7.7-3.5-11z"/><circle cx="169" cy="254.5" r="17.2" fill="#15212a"/><circle cx="175.3" cy="247.8" r="5.9" fill="#fff"/><circle cx="331" cy="254.5" r="17.2" fill="#15212a"/><circle cx="324.7" cy="247.8" r="5.9" fill="#fff"/><ellipse fill="#15212a" cx="348" cy="190.6" rx="8.3" ry="19.4" transform="rotate(-57.5 348 190.6)"/><ellipse fill="#15212a" cx="152" cy="205.1" rx="19.4" ry="8.3" transform="rotate(-32.5 152 205)"/><path d="M250 0a250 250 0 1 1 0 500" fill="#15212a" fill-opacity=".08"/></svg>